<?xml version="1.0" encoding="UTF-8"?>
<svg width="100" height="100" version="1.1" viewBox="0 0 26.458 26.458" xmlns="http://www.w3.org/2000/svg">
<g fill-rule="evenodd">
<rect x="3.5e-7" y="2.6458" width="26.458" height="21.167" fill="#767676" stroke-width=".265" style="paint-order:stroke markers fill"/>
<path d="m2.6458 0c-1.4613 1.3807e-7 -2.6458 1.1846-2.6458 2.6458 0 5.7964 3.7797 8.9958 7.9375 8.9958s3.9628-2.3813 5.2917-2.3813c1.3288 0 1.1339 2.3813 5.2917 2.3813 4.1578 0 7.9375-3.1994 7.9375-8.9958 0-1.4613-1.1846-2.6458-2.6458-2.6458h-10.583z" stroke-width=".24198" style="paint-order:stroke markers fill"/>
<path d="m2.6458 26.458c-1.4613 0-2.6458-1.1846-2.6458-2.6458 0-5.7964 3.7797-8.9958 7.9375-8.9958 4.1578 0 3.9628 2.3812 5.2917 2.3812 1.3288 0 1.1339-2.3812 5.2917-2.3812 4.1578 0 7.9375 3.1994 7.9375 8.9958 0 1.4613-1.1846 2.6458-2.6458 2.6458h-10.583z" stroke-width=".24198" style="paint-order:stroke markers fill"/>
</g>
</svg>
